<svg width="18" height="18" xmlns="http://www.w3.org/2000/svg"><g fill="none" fill-rule="evenodd"><path d="M0 18h18V0H0z"/><path d="M13.47 14.19a2.78 2.78 0 0 1-4.7-1.47h5.47c-.1.54-.36 1.05-.77 1.47M8 13.67A2.02 2.02 0 0 1 6.1 15c-1.1 0-2-.9-2-2V9.92h4.03v.63c-.25.52-.4 1.08-.4 1.64v.06c0 .48.1.96.28 1.41M5.12 3.37a2.01 2.01 0 0 1 3.02 1.76v3.8H4.1V5.11c.01-.72.4-1.39 1.02-1.75m6.38 6.08a2.77 2.77 0 0 1 2.74 2.28H8.77a2.76 2.76 0 0 1 2.73-2.28m2.68.1a3.78 3.78 0 0 0-5.05-.24l.01-4.18A3.02 3.02 0 0 0 4.62 2.5a3.03 3.03 0 0 0-1.51 2.6v4.31H3.1v3.61a3.03 3.03 0 0 0 3 2.98h.01c1.03 0 1.96-.53 2.51-1.36l.21.25a3.77 3.77 0 0 0 5.35 0 3.78 3.78 0 0 0 0-5.34" fill="#3B3B3B"/></g></svg>