<svg width="18" height="18" fill="none" xmlns="http://www.w3.org/2000/svg"><path d="M15.91 5.28a.51.51 0 0 0-.7-.12l-1.74 1.25-3.22-1.84a.5.5 0 0 0-.46 0l-1.34.62a3.23 3.23 0 0 0-6.02-1.56A3.21 3.21 0 0 0 2 5.24v7.56a3.24 3.24 0 0 0 3.25 3.16 3.24 3.24 0 0 0 3.2-3.14l1.34.68c.07.016.14.016.21 0a.45.45 0 0 0 .25-.07l3.5-2A.48.48 0 0 0 14 11V7.26l1.79-1.28a.5.5 0 0 0 .12-.7Zm-11.8-2a2.2 2.2 0 0 1 2.22 0 2.21 2.21 0 0 1 1.12 1.94v1.65H6.12a.5.5 0 0 0 0 1h1.34v1H3.01v-3.7a2.23 2.23 0 0 1 1.1-1.87v-.02Zm1.14 11.68a2.24 2.24 0 0 1-2.23-2.18V9.93h4.44v2.83a2.23 2.23 0 0 1-2.21 2.2ZM13 10.71l-3 1.73-1.51-.73V6.27l1.53-.71 3 1.73-.02 3.42Z" fill="#3B3B3B"/><path d="M10 11.64a.5.5 0 0 1-.25-.93l2-1.14a.5.5 0 1 1 .5.86l-2 1.15a.538.538 0 0 1-.25.06Z" fill="#3B3B3B"/></svg>