<svg width="18" height="18" fill="none" xmlns="http://www.w3.org/2000/svg"><path fill-rule="evenodd" clip-rule="evenodd" d="M11.167 6.29a3.94 3.94 0 1 0 0 7.88 3.94 3.94 0 0 0 0-7.88Zm-4.94 3.94a4.94 4.94 0 1 1 9.88 0 4.94 4.94 0 0 1-9.88 0Z" fill="#3B3B3B"/><path fill-rule="evenodd" clip-rule="evenodd" d="M13.517 13.366a.5.5 0 0 1 .707.023l1.574 1.68a.5.5 0 0 1-.73.684l-1.574-1.68a.5.5 0 0 1 .023-.707ZM12.375 10.23a.5.5 0 0 1 .686-.172l.857.515a.5.5 0 1 1-.514.857l-.858-.514a.5.5 0 0 1-.171-.687ZM9.684 9.147a.5.5 0 0 1 .597.379l.207.926a.5.5 0 1 1-.976.218l-.207-.926a.5.5 0 0 1 .379-.597ZM12.364 7.945a.5.5 0 0 1-.47.528l-.896.052a.5.5 0 0 1-.058-.998l.896-.052a.5.5 0 0 1 .528.47Z" fill="#3B3B3B"/><path d="M2.67 5.252c.001.479-.01 6.834 0 7.55a2.72 2.72 0 0 0 5.44-.02c.005-.716-.001-7.06 0-7.54a2.71 2.71 0 0 0-1.37-2.36 2.72 2.72 0 0 0-2.72 0 2.74 2.74 0 0 0-1.35 2.37Z" fill="#fff"/><path fill-rule="evenodd" clip-rule="evenodd" d="M3.77 2.449a3.22 3.22 0 0 1 3.218 0A3.21 3.21 0 0 1 8.61 5.242v1.71c.001 2.076.003 5.331 0 5.833A3.22 3.22 0 0 1 5.4 15.982l-.001-.5.002.5a3.22 3.22 0 0 1-3.232-3.173c-.008-.505-.004-3.806-.002-5.883l.002-1.672A3.24 3.24 0 0 1 3.766 2.45l.004-.002Zm.501.865A2.24 2.24 0 0 0 3.17 5.25L3.168 6.98c-.002 2.078-.006 5.318.002 5.816a2.22 2.22 0 0 0 2.228 2.187 2.22 2.22 0 0 0 2.212-2.204 2141.109 2141.109 0 0 0 0-7.537 2.21 2.21 0 0 0-1.118-1.924l-.002-.002a2.22 2.22 0 0 0-2.219-.001Z" fill="#3B3B3B"/><path fill-rule="evenodd" clip-rule="evenodd" d="M2.2 9.441a.5.5 0 0 1 .5-.5h5.42a.5.5 0 1 1 0 1H2.7a.5.5 0 0 1-.5-.5ZM5.79 7.393a.5.5 0 0 1 .5-.5h1.84a.5.5 0 0 1 0 1H6.29a.5.5 0 0 1-.5-.5ZM9.975 12.615a.5.5 0 0 1 .368-.604l1.455-.353a.5.5 0 0 1 .236.972l-1.455.353a.5.5 0 0 1-.604-.368Z" fill="#3B3B3B"/></svg>