<svg xmlns="http://www.w3.org/2000/svg" width="18" height="18"><g fill="none" fill-rule="evenodd"><path d="M0 18h18V0H0z"/><path fill="#3B3B3B" d="M4.87 3.01 3.84 4.04a2.52 2.52 0 0 0-.33 3.17 27.23 27.23 0 0 0 7.32 7.38c1.06.61 2.42.44 3.3-.43l.88-.87-2.56-2.55-.54.51a1.5 1.5 0 0 1-1.06.43h-.01c-.4 0-.8-.16-1.08-.45l-2.9-2.92c-.6-.6-.59-1.57 0-2.16l.56-.57L4.87 3zm7.33 12.94c-.65 0-1.3-.17-1.9-.52a28.24 28.24 0 0 1-7.62-7.66 3.53 3.53 0 0 1 .45-4.44l1.03-1.02c.19-.2.44-.3.7-.3a1 1 0 0 1 .71.3l2.56 2.56a1 1 0 0 1 .01 1.4l-.56.58a.53.53 0 0 0 0 .76l2.89 2.92c.1.1.23.17.38.15.13 0 .27-.05.37-.15l.53-.5a1 1 0 0 1 1.4 0l2.56 2.56a1 1 0 0 1 0 1.41l-.87.87a3.74 3.74 0 0 1-2.64 1.08"/></g></svg>