<svg width="18" height="18" xmlns="http://www.w3.org/2000/svg"><g fill="none" fill-rule="evenodd"><path d="M0 18h18V0H0z"/><path d="M9 2.94a6.06 6.06 0 1 0 .01 12.13A6.06 6.06 0 0 0 9 2.94m0 13.12a7.07 7.07 0 1 1 .02-14.13A7.07 7.07 0 0 1 9 16.06" fill="#3B3B3B" fill-rule="nonzero"/><path d="M9 13.65a.73.73 0 0 1-.73-.73c0-.4.33-.72.73-.72.4 0 .73.32.73.72 0 .4-.33.73-.73.73m0-2.06a.5.5 0 0 1-.5-.5v-.76c0-.91.65-1.8 1.3-2.21a1.5 1.5 0 1 0-2.3-1.27.5.5 0 0 1-1 0 2.51 2.51 0 0 1 4.92-.66 2.52 2.52 0 0 1-1.08 2.77c-.46.29-.84.92-.84 1.37v.76a.5.5 0 0 1-.5.5" fill="#3B3B3B" fill-rule="nonzero"/></g></svg>