<svg xmlns="http://www.w3.org/2000/svg" width="18" height="18"><g fill="none" fill-rule="evenodd"><path d="M0 0h18v18H0z"/><path fill="#3B3B3B" d="M7.2 11.06h3.86V8H7.2v3.06zm.9-4.36a1.02 1.02 0 0 1 2.04 0V7H8.11v-.3zm3.2.3h-.16v-.3a2.02 2.02 0 0 0-4.04 0V7h-.16a.75.75 0 0 0-.75.75v3.56c0 .41.33.75.75.75h4.36c.42 0 .75-.34.75-.75V7.75A.75.75 0 0 0 11.3 7z"/><path fill="#3B3B3B" d="M9.13 10.07a.54.54 0 1 1 0-1.08.54.54 0 0 1 0 1.08"/><path fill="#3B3B3B" d="M3.97 4.13v4.55c0 2.57 1.61 4.9 4.01 5.83l1.02.4 1.02-.4c2.4-.92 4-3.26 4-5.83V4.13A11.87 11.87 0 0 0 8.9 3.06c-1.7 0-3.4.37-4.93 1.07M9 15.93a.48.48 0 0 1-.18-.03l-1.2-.46a7.3 7.3 0 0 1-4.65-6.76V3.82c0-.2.11-.37.28-.45a12.75 12.75 0 0 1 5.76-1.3c1.92-.01 3.96.43 5.74 1.3a.5.5 0 0 1 .28.45v4.86c0 2.98-1.87 5.7-4.65 6.76l-1.2.46a.5.5 0 0 1-.18.04"/></g></svg>