<svg width="18" height="18" xmlns="http://www.w3.org/2000/svg"><g fill="#3B3B3B" fill-rule="evenodd"><path d="M7.61 13.07c.88 0 1.77-.23 2.57-.7a.5.5 0 1 0-.52-.87 4 4 0 0 1-4.88-.6L3.73 9.84h.94a.5.5 0 1 0 0-1H3.02a.99.99 0 0 0-.99.99v1.66a.5.5 0 0 0 1 0v-.95l1.04 1.05a5 5 0 0 0 3.54 1.47"/><path d="m11.26 7.43-1.5.06V6.26h1.45l.05 1.17zM6.08 3.92l8.8-.02.02 1.36-8.82.02V3.92zm8.82-1H6.06a.99.99 0 0 0-.98.98v1.38c0 .5.37.89.85.96v3.99a.5.5 0 0 0 1 0V6.26h1.83V7.5c0 .52.43.94.95.94h1.55c.52 0 .95-.42.95-.94V6.26h1.98l.05 7.74H6.93a.5.5 0 0 0-1 .05c0 .53.42.95.94.95h7.37c.52 0 .95-.42.95-.95V6.2c.4-.12.7-.48.7-.92V3.9a.99.99 0 0 0-.99-.98z"/></g></svg>