<svg width="18" height="18" xmlns="http://www.w3.org/2000/svg"><g fill="none" fill-rule="evenodd"><path d="M0 18h18V0H0z"/><path d="M11.08 13.63a.7.7 0 0 1-.49-.2l-.85-.84a.5.5 0 0 1 .7-.7l.64.62 2.07-2.1c.2-.2.51-.2.7 0 .2.2.2.51.01.7l-2.27 2.32a.71.71 0 0 1-.5.2" fill="#3B3B3B"/><path d="M11.87 8.74a3.14 3.14 0 1 0 .01 6.28 3.14 3.14 0 0 0 0-6.28m0 7.27a4.14 4.14 0 1 1 0-8.28 4.14 4.14 0 0 1 0 8.28" fill="#3B3B3B"/><path d="M10.02 5.01V3.73L11.3 5h-1.27zm2.87.23-.04-.08-2.97-3a.49.49 0 0 0-.21-.11.49.49 0 0 0-.24-.07H3.01c-.56 0-1.02.45-1.02 1.01v12.02c0 .56.46 1.01 1.02 1.01h3.9a.5.5 0 0 0 0-1L3 15.01l.02-12.03h6.01V5.5c0 .28.23.5.5.5h2.53v.33a.5.5 0 0 0 1 0V5.6a.5.5 0 0 0-.16-.37z" fill="#3B3B3B"/><path d="M7.5 5.97H5.27a.5.5 0 1 1 0-1h2.25a.5.5 0 0 1 0 1m0 2.77H5.26a.5.5 0 1 1 0-1h2.25a.5.5 0 0 1 0 1m-1 2.77H5.26a.5.5 0 1 1 0-1h1.25a.5.5 0 0 1 0 1" fill="#3B3B3B"/></g></svg>