<svg width="18" height="18" xmlns="http://www.w3.org/2000/svg"><g fill="none" fill-rule="evenodd"><path d="M0 18h18V0H0z"/><path d="m9.82 13.7-.23 1.17 1.17-.24 4.06-4.06a.66.66 0 0 0 0-.93.67.67 0 0 0-.93 0L9.82 13.7zM8.95 16a.5.5 0 0 1-.49-.6l.41-2.04a.5.5 0 0 1 .14-.26l4.17-4.17a1.7 1.7 0 0 1 2.35 0c.65.65.65 1.7 0 2.34l-4.17 4.18a.5.5 0 0 1-.26.14l-2.05.4a.47.47 0 0 1-.1.02zM7.5 6.02H5.26a.5.5 0 0 1 0-1H7.5a.5.5 0 0 1 0 1m1.86 2.77h-4.1a.5.5 0 0 1 0-1h4.1a.5.5 0 0 1 0 1M7.5 11.55H5.26a.5.5 0 0 1 0-1H7.5a.5.5 0 0 1 0 1" fill="#3B3B3B"/><path d="m10.08 3.62 1.37 1.39h-1.37V3.62zm2.82 1.44L10 2.13a.5.5 0 0 0-.35-.15H3c-.56 0-1 .45-1 1.01v12.02c0 .56.45 1.01 1.01 1.01h3.9a.5.5 0 1 0 0-1L3 15.01V2.98h6.08V5.5c0 .28.22.5.5.5h2.47v1.5a.5.5 0 1 0 1 0V5.4a.5.5 0 0 0-.15-.35z" fill="#3B3B3B"/></g></svg>