<svg width="18" height="19" xmlns="http://www.w3.org/2000/svg"><g fill="none" fill-rule="evenodd"><path d="M0 19h18V1H0z"/><path d="M6.55 4.2a.5.5 0 0 1-.44-.26.5.5 0 0 1 .24-.94c.38 0 .7.31.7.7a.5.5 0 0 1-.5.5z" fill="#3B3B3B"/><path d="M6.15 4.2a.5.5 0 0 1-.5-.5c0-.39.31-.7.7-.7a.5.5 0 0 1 .24.94.5.5 0 0 1-.44.26" fill="#3B3B3B"/><path d="M6.35 4.4a.7.7 0 0 1-.7-.7.5.5 0 0 1 .94-.24.5.5 0 0 1-.24.94" fill="#3B3B3B"/><path d="M6.35 4.4a.5.5 0 0 1-.24-.94.5.5 0 0 1 .94.24.7.7 0 0 1-.7.7m2.57-.2a.5.5 0 0 1-.44-.26.5.5 0 0 1 .24-.94c.39 0 .7.31.7.7a.5.5 0 0 1-.5.5z" fill="#3B3B3B"/><path d="M8.53 4.2a.5.5 0 0 1-.5-.5c0-.39.3-.7.7-.7a.5.5 0 0 1 .23.94.5.5 0 0 1-.43.26" fill="#3B3B3B"/><path d="M8.72 4.4a.7.7 0 0 1-.7-.7.5.5 0 0 1 .94-.24.5.5 0 0 1-.24.94" fill="#3B3B3B"/><path d="M8.72 4.4a.5.5 0 0 1-.24-.94.5.5 0 0 1 .94.24.7.7 0 0 1-.7.7" fill="#3B3B3B"/><path d="M7.5 11.3c-2.2 0-4-1.77-4-3.96V4.2a1 1 0 0 1 1-1h1.27a.5.5 0 1 1 0 1H4.49v3.14A2.99 2.99 0 0 0 7.5 10.3c1.66 0 3-1.32 3-2.96V4.2H9.26a.5.5 0 0 1 0-1h1.26a1 1 0 0 1 1 1v3.14c0 2.19-1.8 3.96-4.01 3.96m5.98-.3a.78.78 0 1 0 0 1.57.78.78 0 0 0 0-1.57m0 2.56a1.78 1.78 0 1 1 0-3.56 1.78 1.78 0 0 1 0 3.56" fill="#3B3B3B"/><path d="M10.49 17a3.5 3.5 0 0 1-3.5-3.5v-2.56a.5.5 0 1 1 1 0v2.57a2.5 2.5 0 0 0 5 0v-.3a.5.5 0 0 1 1 0v.3a3.5 3.5 0 0 1-3.5 3.49" fill="#3B3B3B"/></g></svg>