<svg width="18" height="18" xmlns="http://www.w3.org/2000/svg"><g fill="none" fill-rule="evenodd"><path d="M0 18h18V0H0z"/><path d="M8.41 3c-.07 0-.15.01-.22.03a1.4 1.4 0 0 0-.77 2.37l3.22 3.34-.36-.35 2.86-2.98a1.4 1.4 0 1 0-1.98-2l-.52.53a.5.5 0 0 1-.71 0l-.53-.52A1.4 1.4 0 0 0 8.41 3m1.87 6.38a1 1 0 0 1-.72-.3L6.71 6.1a2.4 2.4 0 0 1 1.32-4.06c.76-.13 1.54.13 2.08.67l.17.17.18-.17a2.4 2.4 0 0 1 3.4 3.4L11 9.08a1 1 0 0 1-.73.31M3 10.74v1.82l4.93 2.43 6.78-2.94a.43.43 0 0 0-.34-.8L9.75 13.2a.5.5 0 0 1-.39 0l-.44-.19a.45.45 0 0 1-.1-.06 1.29 1.29 0 0 1-.17-.06l-2.06-.87a.5.5 0 1 1 .4-.92l2.05.87a.33.33 0 0 0 .44-.41.32.32 0 0 0-.18-.2l-1.5-.65a5.89 5.89 0 0 0-4.79.02M7.94 16c-.15 0-.3-.03-.44-.1l-4.93-2.44a1 1 0 0 1-.56-.9v-2.12c0-.19.1-.36.28-.45a6.9 6.9 0 0 1 5.92-.17l1.5.65a1.34 1.34 0 0 1 .78 1.35l3.51-1.5a1.44 1.44 0 0 1 1.12 2.65L8.35 15.9c-.13.05-.27.08-.4.08" fill="#3B3B3B"/></g></svg>