<svg xmlns="http://www.w3.org/2000/svg" width="18" height="18"><path fill="#3B3B3B" fill-rule="evenodd" d="M14.95 8.8a5.96 5.96 0 0 1-11.9 0v-.02h11.9v.02zM3.55 4.21l1.84 3.57H3.58c-.19-.8-.3-1.98-.03-3.57zm4.17 3.57h-1.2l-2-3.84a7.52 7.52 0 0 1 3.2 3.84zm2.21-2.49c.51.1 1.01.36 1.44.76l.17.16c.02.03.05.04.08.05L10.6 7.78H8.78a7.03 7.03 0 0 0-.95-2.06 2.9 2.9 0 0 1 2.1-.43zm4.14-.83.76.45-1.94 2.87H11.8l2.27-3.32zm1.38 3.32H14.1l1.55-2.3a1.01 1.01 0 0 0-.32-1.42l-.75-.46a1 1 0 0 0-1.34.3l-1.06 1.54-.13-.12a3.87 3.87 0 0 0-1.94-1.01c-1-.19-2.04.04-2.88.6a10.28 10.28 0 0 0-3.7-2.63h-.01l-.13-.02c-.02 0-.04-.01-.07 0a.52.52 0 0 0-.18.04h-.01a.49.49 0 0 0-.16.13l-.02.04a.51.51 0 0 0-.07.14v.01c-.63 2.3-.55 4.02-.33 5.16a.5.5 0 0 0-.5.5v.52a6.96 6.96 0 0 0 13.9 0v-.52a.5.5 0 0 0-.5-.5z"/></svg>