<svg xmlns="http://www.w3.org/2000/svg" width="18" height="18"><g fill="none" fill-rule="evenodd"><path d="M0 18h18V0H0z"/><path fill="#3B3B3B" d="M15.42 7.6h-1.8a.5.5 0 0 0 0 1h.46v1.97h-1.6a2.1 2.1 0 0 0-1.79-3.24c-.67 0-1.31.33-1.7.87a.5.5 0 1 0 .8.6c.21-.3.54-.47.9-.47a1.12 1.12 0 0 1 0 2.24c-.04 0-.07.02-.11.03-.08 0-.15-.03-.23-.03a.5.5 0 1 0 0 1 1.68 1.68 0 1 1-1.64 2.02.5.5 0 0 0-.98.2 2.68 2.68 0 0 0 5.3-.54c0-.63-.23-1.22-.6-1.68h1.65v3.74a.5.5 0 0 0 1 0V8.6h.34a.5.5 0 0 0 0-1M6.7 5.88H4.45a.5.5 0 0 1 0-1h2.24a.5.5 0 0 1 0 1m.87 2.77H4.45a.5.5 0 0 1 0-1h3.11a.5.5 0 0 1 0 1m-.87 2.77H4.45a.5.5 0 0 1 0-1h2.24a.5.5 0 0 1 0 1"/><path fill="#3B3B3B" d="m10.46 3.6 1.31 1.23h-1.3V3.59zm2.92 1.36-3-2.82a.5.5 0 0 0-.35-.14H2.9a1 1 0 0 0-1 1v11.5a1 1 0 0 0 1 1h3.6a.5.5 0 1 0 0-1H2.89V3h6.57v2.33c0 .27.23.5.5.5h2.57v.67a.5.5 0 1 0 1 0V5.33a.5.5 0 0 0-.15-.37z"/></g></svg>