<svg width="18" height="18" xmlns="http://www.w3.org/2000/svg"><g fill="#3B3B3B" fill-rule="evenodd"><path d="M7.17 11.33a.5.5 0 0 1-.35-.85l3.63-3.64c.2-.2.51-.2.7 0 .2.2.2.51 0 .7l-3.62 3.64a.5.5 0 0 1-.36.15m3.33.17a.94.94 0 1 1 0-1.87.94.94 0 0 1 0 1.87M7.47 8.47a.94.94 0 1 1 0-1.87.94.94 0 0 1 0 1.87"/><path d="M6.93 13.51a.5.5 0 0 1 .47.33c.3.84 1.02 1.13 1.6 1.13.58 0 1.3-.3 1.6-1.13a.5.5 0 0 1 .69-.28c.8.38 1.52.07 1.93-.34.41-.4.72-1.13.34-1.93a.5.5 0 0 1 .28-.69A1.67 1.67 0 0 0 14.97 9c0-.58-.3-1.3-1.13-1.6a.5.5 0 0 1-.28-.69c.38-.8.07-1.52-.34-1.93a1.66 1.66 0 0 0-1.93-.34.5.5 0 0 1-.4.01.5.5 0 0 1-.29-.3A1.67 1.67 0 0 0 9 3.04c-.58 0-1.3.3-1.6 1.13a.5.5 0 0 1-.69.28 1.67 1.67 0 0 0-1.93.34 1.67 1.67 0 0 0-.34 1.93.5.5 0 0 1-.28.69A1.67 1.67 0 0 0 3.03 9c0 .58.3 1.3 1.13 1.6a.5.5 0 0 1 .29.69c-.39.8-.08 1.52.33 1.93.4.41 1.13.72 1.93.34a.51.51 0 0 1 .22-.05M9 15.97c-.99 0-1.86-.5-2.33-1.33-.93.24-1.9-.01-2.6-.7-.7-.7-.95-1.68-.7-2.6A2.67 2.67 0 0 1 2.02 9c0-.99.5-1.86 1.33-2.34a2.709 2.709 0 0 1 3.31-3.3A2.67 2.67 0 0 1 9 2.03c.99 0 1.86.5 2.33 1.33.92-.24 1.9.01 2.6.7.7.7.95 1.68.7 2.6A2.67 2.67 0 0 1 15.98 9c0 .99-.5 1.86-1.33 2.33.24.93-.01 1.9-.7 2.6-.7.7-1.68.95-2.6.7A2.67 2.67 0 0 1 9 15.98"/></g></svg>