<svg width="48" height="48" fill="none" xmlns="http://www.w3.org/2000/svg"><path d="M19.061 29.714s5.843 5.077 10.062-.784l5.89 3.124a5.576 5.576 0 0 1 2.422 2.534l1.353 1.694s-4.403 6.586-14.82 7.135c-8.77.462-14.894-6.987-14.894-6.987l1.324-1.957a6.869 6.869 0 0 1 3.037-2.451l5.626-2.308Z" fill="#FDCF95"/><path d="M23.95 25.02c-4.293 0-7.782-4.02-7.782-8.967 0-4.948 3.49-8.963 7.782-8.963s7.776 4.03 7.776 8.972c0 4.943-3.484 8.959-7.776 8.959Zm0-16.984c-3.767 0-6.836 3.595-6.836 8.017 0 4.421 3.074 8.044 6.835 8.044 3.762 0 6.836-3.6 6.836-8.021 0-4.421-3.065-8.03-6.835-8.03v-.01Z" fill="#3B3B3B"/><path d="M31.159 17.118h-.037a14.557 14.557 0 0 1-11.746-7.823.462.462 0 0 1 .203-.637.462.462 0 0 1 .641.203 13.612 13.612 0 0 0 10.976 7.311.461.461 0 0 1 .433.513.462.462 0 0 1-.47.433Z" fill="#3B3B3B"/><path d="M16.81 15.6a.46.46 0 0 1-.42-.259.462.462 0 0 1 .202-.637 13.644 13.644 0 0 0 4.348-3.568.46.46 0 0 1 .665-.069.462.462 0 0 1 .073.665 14.627 14.627 0 0 1-4.652 3.812.46.46 0 0 1-.217.056ZM8.188 36.825a.463.463 0 0 1-.19-.041.462.462 0 0 1-.249-.623l1.186-2.77a4.565 4.565 0 0 1 2.211-2.307l8.728-4.214a.766.766 0 0 0 .434-.692v-2.183a.461.461 0 1 1 .923 0v2.183a1.717 1.717 0 0 1-.97 1.546l-8.723 4.218a3.628 3.628 0 0 0-1.753 1.847l-1.182 2.769a.461.461 0 0 1-.415.267ZM39.83 36.79a.461.461 0 0 1-.433-.287l-1.242-2.894a3.591 3.591 0 0 0-1.754-1.846l-8.427-4.07a2.262 2.262 0 0 1-1.27-2.022v-1.846a.461.461 0 1 1 .924 0v1.846a1.305 1.305 0 0 0 .729 1.168l8.432 4.07A4.574 4.574 0 0 1 39 33.217l1.237 2.894a.462.462 0 0 1-.245.623.548.548 0 0 1-.161.055Z" fill="#3B3B3B"/><path d="M24.06 30.748a5.866 5.866 0 0 1-4.214-1.795l-.923-.923a.462.462 0 0 1 0-.674.463.463 0 0 1 .67 0l.922.946a4.91 4.91 0 0 0 3.693 1.5 4.92 4.92 0 0 0 3.586-1.735l.655-.78a.46.46 0 0 1 .67-.055.462.462 0 0 1 .055.669l-.656.78a5.853 5.853 0 0 1-4.278 2.067h-.18Z" fill="#3B3B3B"/><path d="M24 44.802A20.82 20.82 0 0 1 3.203 24 20.82 20.82 0 0 1 24 3.203 20.82 20.82 0 0 1 44.797 24 20.82 20.82 0 0 1 24 44.802Zm0-40.676A19.897 19.897 0 0 0 4.126 24 19.897 19.897 0 0 0 24 43.879 19.902 19.902 0 0 0 43.873 24 19.897 19.897 0 0 0 24 4.126Z" fill="#3B3B3B"/></svg>